<svg version="1.1" xmlns="http://www.w3.org/2000/svg" xmlns:xlink="http://www.w3.org/1999/xlink" width="128.29088" height="77.50519" viewBox="8.50712,70.67043,128.29088,77.50519" id="Actual Size"><g fill="none" fill-rule="nonzero" stroke="none" stroke-width="1" stroke-linecap="butt" stroke-linejoin="miter" stroke-miterlimit="10" stroke-dasharray="" stroke-dashoffset="0" font-family="none" font-weight="none" font-size="none" text-anchor="none" style="mix-blend-mode: normal"><path d="M8.50712,148.17562v-77.50519h128.29088v77.50519z" fill="none"/><path data-paper-data="{&quot;type&quot;:&quot;Letter CompoundPath&quot;,&quot;isSubtraction&quot;:false}" fill="#11676a"/><path data-paper-data="{&quot;type&quot;:&quot;Letter CompoundPath&quot;,&quot;isSubtraction&quot;:false}" fill="#11676a"/><path data-paper-data="{&quot;type&quot;:&quot;Letter CompoundPath&quot;,&quot;isSubtraction&quot;:false}" fill="#11676a"/><path d="M51.7071,77.85195v65c0,3.33333 -1.66667,5 -5,5h-10.5c-3.33333,0 -5,-1.66667 -5,-5v-57.8c0,-3.33333 1.22223,-3.8669 3.66669,-1.60069l2.26664,2.10134c2.44446,2.26621 2.02538,3.68899 -1.25723,4.26827l-22.45217,3.96214c-3.28261,0.57928 -4.92391,-0.79773 -4.92391,-4.13106v-6c0,-3.33333 1.63202,-5.33807 4.89605,-6.01418l18.20788,-3.77164c3.26403,-0.67611 6.56272,-1.01418 9.89605,-1.01418h5.2c3.33333,0 5,1.66667 5,5z" data-paper-data="{&quot;type&quot;:&quot;Letter CompoundPath&quot;,&quot;isSubtraction&quot;:false}" fill="#11676a"/><path d="M118.18571,106.88696c-0.21775,-1.34818 0.53172,-2.6737 1.77333,-3.23578l10.07721,-4.58369c1.78423,-0.80057 3.83108,0.22339 4.2981,2.12734c1.08393,4.50439 1.37219,9.2994 0.69471,14.20856c-2.64351,18.99669 -19.39179,33.24418 -38.55253,32.76026c-23.36233,-0.59043 -40.73705,-21.77335 -36.5102,-44.95424c3.1287,-17.16541 17.90184,-30.13248 35.33256,-31.02989c4.05497,-0.2041 7.95605,0.21183 11.6112,1.16513c1.85928,0.47316 2.83542,2.52119 2.04921,4.26576l-4.50111,9.99019c-0.57169,1.27911 -1.94362,2.05329 -3.32551,1.8084c-1.55374,-0.27262 -3.17084,-0.38919 -4.82946,-0.31076c-9.59143,0.45287 -17.80381,7.5719 -19.61007,17.0032c-2.48792,12.9612 7.24059,24.85475 20.30974,25.11619c9.47374,0.18303 18.01901,-6.19911 20.62853,-15.29945c0.89225,-3.10152 1.0098,-6.14677 0.55329,-9.01869zM117.77633,106.96329" data-paper-data="{&quot;type&quot;:&quot;Shape CompoundPath&quot;,&quot;isSubtraction&quot;:false}" fill="#11676a"/><path d="M109.50104,102.18721c-0.43175,-0.46003 -2.32759,-2.5012 -2.78728,-2.92656c-1.53072,-1.38879 -2.77031,-2.26701 -1.54587,-4.61944l9.01307,-21.95482c0.76862,-1.68407 2.72423,-2.45695 4.43957,-1.76025c3.23775,1.32643 7.52367,3.30381 11.71833,8.03061c3.85521,4.34951 5.00069,7.15772 6.15108,10.05282c0.68139,1.72407 0.23755,3.67275 -1.38279,4.58677c0,0 -21.05398,8.80308 -21.29091,8.95616c-1.22057,0.75034 -2.9259,1.07317 -4.3152,-0.36529z" data-paper-data="{&quot;type&quot;:&quot;Shape CompoundPath&quot;,&quot;isSubtraction&quot;:false}" fill="#f0c000"/><path d="M113.96214,102.25767" data-paper-data="{&quot;type&quot;:&quot;Shape CompoundPath&quot;,&quot;isSubtraction&quot;:false}" fill="#11676a"/></g></svg>