<svg xmlns="http://www.w3.org/2000/svg" xmlns:xlink="http://www.w3.org/1999/xlink" version="1.1" viewBox="-57.474609375 -160.34271240234375 386.5818176269531 78.66902160644531" id="Actual Size"><g fill="none" fill-rule="nonzero" stroke="none" stroke-width="1" stroke-linecap="butt" stroke-linejoin="miter" stroke-miterlimit="10" stroke-dasharray="" stroke-dashoffset="0" font-family="none" font-weight="none" font-size="none" text-anchor="none" style="mix-blend-mode: normal"><path d="M-56.97461,-82.17369v-153.89369h385.58185v153.89369z" fill="none"/><path d="M-24.77461,-150.74271h10.8c3.33333,0 5,1.66667 5,5v55.9c0,3.33333 -1.66667,5 -5,5h-10.8c-3.33333,0 -5,-1.66667 -5,-5v-55.9c0,-3.33333 1.66667,-5 5,-5zM-51.97461,-159.84271h68c3.33333,0 5,1.66667 5,5v8.4c0,3.33333 -1.66667,5 -5,5h-68c-3.33333,0 -5,-1.66667 -5,-5v-8.4c0,-3.33333 1.66667,-5 5,-5z" data-paper-data="{&quot;type&quot;:&quot;Letter CompoundPath&quot;,&quot;isSubtraction&quot;:false}" fill="#11676a"/><path d="M93.35699,-124.84271v5c0,3.33333 -1.66667,5 -5,5h-44.9c-3.33333,0 -5,-1.66667 -5,-5v-5c0,-3.33333 1.66667,-5 5,-5h44.9c3.33333,0 5,1.66667 5,5zM51.75361,-117.40767l-3.29324,20.22993c-0.53559,3.29002 -1.91393,3.69228 -4.13503,1.20676l-1.73669,-1.94344c-2.2211,-2.48552 -1.66499,-3.72828 1.66835,-3.72828h47.4c3.33333,0 5,1.66667 5,5v6.8c0,3.33333 -1.66667,5 -5,5h-59.7c-3.33333,0 -4.74954,-1.64774 -4.24863,-4.94322l4.19726,-27.61356c0.50091,-3.29548 0.50091,-6.59096 0,-9.88644l-4.19726,-27.61356c-0.50091,-3.29548 0.9153,-4.94322 4.24863,-4.94322h59.2c3.33333,0 5,1.66667 5,5v6.8c0,3.33333 -1.66667,5 -5,5h-46.9c-3.33333,0 -3.88945,-1.24276 -1.66835,-3.72828l1.73669,-1.94344c2.2211,-2.48552 3.59945,-2.08327 4.13503,1.20676l3.29324,20.22993c0.53559,3.29002 0.53559,6.58005 0,9.87007z" data-paper-data="{&quot;type&quot;:&quot;Letter CompoundPath&quot;,&quot;isSubtraction&quot;:false}" fill="#11676a"/><path d="M172.28543,-98.74553l-0.52008,0.10564c-1.95997,0.39812 -2.93996,-0.40282 -2.93996,-2.40282v-53.8c0,-3.33333 1.66667,-5 5,-5h10.1c3.33333,0 5,1.66667 5,5v65c0,3.33333 -1.66667,5 -5,5h-16.1c-3.33333,0 -5.9574,-1.36424 -7.87221,-4.09273l-38.70447,-55.15163c-1.14888,-1.63709 -0.74396,-2.65773 1.21478,-3.06191l0.4238,-0.08745c1.95873,-0.40418 2.9381,0.39373 2.9381,2.39373v55c0,3.33333 -1.66667,5 -5,5h-10.1c-3.33333,0 -5,-1.66667 -5,-5v-65c0,-3.33333 1.66667,-5 5,-5h16.8c3.33333,0 5.96105,1.36168 7.88315,4.08503l38.08696,53.96396c1.15326,1.63401 0.7499,2.65008 -1.21007,3.0482z" data-paper-data="{&quot;type&quot;:&quot;Letter CompoundPath&quot;,&quot;isSubtraction&quot;:false}" fill="#11676a"/><path d="M240.52539,-154.84271v65c0,3.33333 -1.66667,5 -5,5h-10.5c-3.33333,0 -5,-1.66667 -5,-5v-57.8c0,-3.33333 1.22223,-3.86689 3.66669,-1.60068l2.26663,2.10135c2.44446,2.26622 2.02538,3.68897 -1.25723,4.26825l-22.45216,3.96215c-3.28261,0.57928 -4.92392,-0.79774 -4.92392,-4.13107v-6c0,-3.33333 1.63202,-5.33806 4.89606,-6.01418l18.20787,-3.77163c3.26404,-0.67612 6.56273,-1.01418 9.89606,-1.01418h5.2c3.33333,0 5,1.66667 5,5z" data-paper-data="{&quot;type&quot;:&quot;Letter CompoundPath&quot;,&quot;isSubtraction&quot;:false}" fill="#11676a"/><path d="M209.21171,-236.06738M309.99495,-123.46235c-0.21776,-1.34818 0.53172,-2.67371 1.77333,-3.23579l10.0772,-4.58369c1.78423,-0.80058 3.83109,0.2234 4.29811,2.12735c1.08394,4.50439 1.37218,9.2994 0.6947,14.20856c-2.64351,18.99669 -19.3918,33.24417 -38.55253,32.76026c-23.36233,-0.59043 -40.73704,-21.77337 -36.51019,-44.95425c3.1287,-17.16541 17.90183,-30.13248 35.33255,-31.02989c4.05497,-0.2041 7.95607,0.21184 11.61121,1.16514c1.85928,0.47316 2.83542,2.52118 2.0492,4.26575l-4.5011,9.9902c-0.57169,1.27911 -1.94364,2.05328 -3.32552,1.80839c-1.55373,-0.27262 -3.17084,-0.38919 -4.82946,-0.31076c-9.59142,0.45287 -17.8038,7.57191 -19.61006,17.0032c-2.48791,12.9612 7.2406,24.85476 20.30974,25.1162c9.47374,0.18304 18.01899,-6.19911 20.62852,-15.29945c0.89224,-3.10153 1.0098,-6.14677 0.55329,-9.01869zM309.58557,-123.38602" data-paper-data="{&quot;type&quot;:&quot;Shape CompoundPath&quot;,&quot;isSubtraction&quot;:false}" fill="#11676a"/><path d="M301.31028,-128.16211c-0.43175,-0.46003 -2.32759,-2.50119 -2.78728,-2.92655c-1.53072,-1.38879 -2.77031,-2.26703 -1.54587,-4.61945l9.01306,-21.95482c0.76862,-1.68406 2.72423,-2.45695 4.43957,-1.76024c3.23775,1.32642 7.52368,3.30379 11.71833,8.0306c3.85522,4.3495 5.00069,7.15773 6.15109,10.05283c0.68139,1.72407 0.23756,3.67276 -1.38279,4.58677c0,0 -21.05398,8.80308 -21.29092,8.95616c-1.22058,0.75035 -2.9259,1.07316 -4.31519,-0.3653z" data-paper-data="{&quot;type&quot;:&quot;Shape CompoundPath&quot;,&quot;isSubtraction&quot;:false}" fill="#f0c000"/><path d="M305.77138,-128.09165" data-paper-data="{&quot;type&quot;:&quot;Shape CompoundPath&quot;,&quot;isSubtraction&quot;:false}" fill="#11676a"/></g></svg>