<svg version="1.1" xmlns="http://www.w3.org/2000/svg" xmlns:xlink="http://www.w3.org/1999/xlink" width="43.19999" height="151.22467" viewBox="197.3254,-236.06738,43.19999,151.22467" id="Actual Size"><g fill="none" fill-rule="nonzero" stroke="none" stroke-width="1" stroke-linecap="butt" stroke-linejoin="miter" stroke-miterlimit="10" stroke-dasharray="" stroke-dashoffset="0" font-family="none" font-weight="none" font-size="none" text-anchor="none" style="mix-blend-mode: normal"><path d="M197.3254,-84.84271v-151.22467h43.19999v151.22467z" fill="none"/><path data-paper-data="{&quot;type&quot;:&quot;Letter CompoundPath&quot;,&quot;isSubtraction&quot;:false}" fill="#11676a"/><path data-paper-data="{&quot;type&quot;:&quot;Letter CompoundPath&quot;,&quot;isSubtraction&quot;:false}" fill="#11676a"/><path data-paper-data="{&quot;type&quot;:&quot;Letter CompoundPath&quot;,&quot;isSubtraction&quot;:false}" fill="#11676a"/><path d="M240.52539,-154.84271v65c0,3.33333 -1.66667,5 -5,5h-10.5c-3.33333,0 -5,-1.66667 -5,-5v-57.8c0,-3.33333 1.22223,-3.86689 3.66669,-1.60068l2.26663,2.10135c2.44446,2.26622 2.02538,3.68897 -1.25723,4.26825l-22.45216,3.96215c-3.28261,0.57928 -4.92392,-0.79774 -4.92392,-4.13107v-6c0,-3.33333 1.63202,-5.33806 4.89606,-6.01418l18.20787,-3.77163c3.26404,-0.67612 6.56273,-1.01418 9.89606,-1.01418h5.2c3.33333,0 5,1.66667 5,5z" data-paper-data="{&quot;type&quot;:&quot;Letter CompoundPath&quot;,&quot;isSubtraction&quot;:false}" fill="#11676a"/><path d="M209.21171,-236.06738" data-paper-data="{&quot;type&quot;:&quot;Shape CompoundPath&quot;,&quot;isSubtraction&quot;:false}" fill="#11676a"/><path data-paper-data="{&quot;type&quot;:&quot;Shape CompoundPath&quot;,&quot;isSubtraction&quot;:false}" fill="#f0c000"/><path data-paper-data="{&quot;type&quot;:&quot;Shape CompoundPath&quot;,&quot;isSubtraction&quot;:false}" fill="#11676a"/></g></svg>