<svg version="1.1" xmlns="http://www.w3.org/2000/svg" xmlns:xlink="http://www.w3.org/1999/xlink" width="181.6015" height="151.22468" viewBox="27.61021,-236.06738,181.6015,151.22468" id="Actual Size"><g fill="none" fill-rule="nonzero" stroke="none" stroke-width="1" stroke-linecap="butt" stroke-linejoin="miter" stroke-miterlimit="10" stroke-dasharray="" stroke-dashoffset="0" font-family="none" font-weight="none" font-size="none" text-anchor="none" style="mix-blend-mode: normal"><path d="M27.61021,-84.8427v-151.22468h181.6015v151.22468z" fill="none"/><path data-paper-data="{&quot;type&quot;:&quot;Letter CompoundPath&quot;,&quot;isSubtraction&quot;:false}" fill="#11676a"/><path d="M93.35699,-124.84271v5c0,3.33333 -1.66667,5 -5,5h-44.9c-3.33333,0 -5,-1.66667 -5,-5v-5c0,-3.33333 1.66667,-5 5,-5h44.9c3.33333,0 5,1.66667 5,5zM51.75361,-117.40767l-3.29324,20.22993c-0.53559,3.29002 -1.91393,3.69228 -4.13503,1.20676l-1.73669,-1.94344c-2.2211,-2.48552 -1.66499,-3.72828 1.66835,-3.72828h47.4c3.33333,0 5,1.66667 5,5v6.8c0,3.33333 -1.66667,5 -5,5h-59.7c-3.33333,0 -4.74954,-1.64774 -4.24863,-4.94322l4.19726,-27.61356c0.50091,-3.29548 0.50091,-6.59096 0,-9.88644l-4.19726,-27.61356c-0.50091,-3.29548 0.9153,-4.94322 4.24863,-4.94322h59.2c3.33333,0 5,1.66667 5,5v6.8c0,3.33333 -1.66667,5 -5,5h-46.9c-3.33333,0 -3.88945,-1.24276 -1.66835,-3.72828l1.73669,-1.94344c2.2211,-2.48552 3.59945,-2.08327 4.13503,1.20676l3.29324,20.22993c0.53559,3.29002 0.53559,6.58005 0,9.87007z" data-paper-data="{&quot;type&quot;:&quot;Letter CompoundPath&quot;,&quot;isSubtraction&quot;:false}" fill="#11676a"/><path data-paper-data="{&quot;type&quot;:&quot;Letter CompoundPath&quot;,&quot;isSubtraction&quot;:false}" fill="#11676a"/><path data-paper-data="{&quot;type&quot;:&quot;Letter CompoundPath&quot;,&quot;isSubtraction&quot;:false}" fill="#11676a"/><path d="M209.21171,-236.06738" data-paper-data="{&quot;type&quot;:&quot;Shape CompoundPath&quot;,&quot;isSubtraction&quot;:false}" fill="#11676a"/><path data-paper-data="{&quot;type&quot;:&quot;Shape CompoundPath&quot;,&quot;isSubtraction&quot;:false}" fill="#f0c000"/><path data-paper-data="{&quot;type&quot;:&quot;Shape CompoundPath&quot;,&quot;isSubtraction&quot;:false}" fill="#11676a"/></g></svg>