<svg version="1.1" xmlns="http://www.w3.org/2000/svg" xmlns:xlink="http://www.w3.org/1999/xlink" width="366.56018" height="151.22467" viewBox="-56.97461,-236.06738,366.56018,151.22467" id="Actual Size"><g fill="none" fill-rule="nonzero" stroke="none" stroke-width="1" stroke-linecap="butt" stroke-linejoin="miter" stroke-miterlimit="10" stroke-dasharray="" stroke-dashoffset="0" font-family="none" font-weight="none" font-size="none" text-anchor="none" style="mix-blend-mode: normal"><path d="M-56.97461,-84.84271v-151.22467h366.56018v151.22467z" fill="none"/><path d="M-24.77461,-150.74271h10.8c3.33333,0 5,1.66667 5,5v55.9c0,3.33333 -1.66667,5 -5,5h-10.8c-3.33333,0 -5,-1.66667 -5,-5v-55.9c0,-3.33333 1.66667,-5 5,-5zM-51.97461,-159.84271h68c3.33333,0 5,1.66667 5,5v8.4c0,3.33333 -1.66667,5 -5,5h-68c-3.33333,0 -5,-1.66667 -5,-5v-8.4c0,-3.33333 1.66667,-5 5,-5z" data-paper-data="{&quot;type&quot;:&quot;Letter CompoundPath&quot;,&quot;isSubtraction&quot;:false}" fill="#11676a"/><path data-paper-data="{&quot;type&quot;:&quot;Letter CompoundPath&quot;,&quot;isSubtraction&quot;:false}" fill="#11676a"/><path data-paper-data="{&quot;type&quot;:&quot;Letter CompoundPath&quot;,&quot;isSubtraction&quot;:false}" fill="#11676a"/><path data-paper-data="{&quot;type&quot;:&quot;Letter CompoundPath&quot;,&quot;isSubtraction&quot;:false}" fill="#11676a"/><path d="M209.21171,-236.06738M309.58557,-123.38602" data-paper-data="{&quot;type&quot;:&quot;Shape CompoundPath&quot;,&quot;isSubtraction&quot;:false}" fill="#11676a"/><path data-paper-data="{&quot;type&quot;:&quot;Shape CompoundPath&quot;,&quot;isSubtraction&quot;:false}" fill="#f0c000"/><path data-paper-data="{&quot;type&quot;:&quot;Shape CompoundPath&quot;,&quot;isSubtraction&quot;:false}" fill="#11676a"/></g></svg>