<svg xmlns="http://www.w3.org/2000/svg" xmlns:xlink="http://www.w3.org/1999/xlink" version="1.1" viewBox="106.50265502929688 -178.25709533691406 78.46745300292969 78.50515747070312" id="Actual Size"><g fill="none" fill-rule="nonzero" stroke="none" stroke-width="1" stroke-linecap="butt" stroke-linejoin="miter" stroke-miterlimit="10" stroke-dasharray="" stroke-dashoffset="0" font-family="none" font-weight="none" font-size="none" text-anchor="none" style="mix-blend-mode: normal"><path d="M65.07456,-100.25191v-153.89369h119.39553v153.89369z" fill="none"/><path data-paper-data="{&quot;type&quot;:&quot;Letter CompoundPath&quot;,&quot;isSubtraction&quot;:false}" fill="#000000"/><path data-paper-data="{&quot;type&quot;:&quot;Letter CompoundPath&quot;,&quot;isSubtraction&quot;:false}" fill="#000000"/><path data-paper-data="{&quot;type&quot;:&quot;Letter CompoundPath&quot;,&quot;isSubtraction&quot;:false}" fill="#000000"/><path data-paper-data="{&quot;type&quot;:&quot;Letter CompoundPath&quot;,&quot;isSubtraction&quot;:false}" fill="#000000"/><path d="M65.07456,-254.1456M165.8578,-141.54057c-0.21776,-1.34818 0.53172,-2.67371 1.77333,-3.23579l10.0772,-4.58369c1.78423,-0.80058 3.83109,0.2234 4.29811,2.12735c1.08394,4.50439 1.37218,9.2994 0.6947,14.20856c-2.64351,18.99669 -19.3918,33.24417 -38.55253,32.76026c-23.36233,-0.59043 -40.73704,-21.77337 -36.51019,-44.95425c3.1287,-17.16541 17.90183,-30.13248 35.33255,-31.02989c4.05497,-0.2041 7.95607,0.21184 11.61121,1.16514c1.85928,0.47316 2.83542,2.52118 2.0492,4.26575l-4.5011,9.9902c-0.57169,1.27911 -1.94364,2.05328 -3.32552,1.80839c-1.55373,-0.27262 -3.17084,-0.38919 -4.82946,-0.31076c-9.59142,0.45287 -17.8038,7.57191 -19.61006,17.0032c-2.48791,12.9612 7.2406,24.85476 20.30974,25.1162c9.47374,0.18304 18.01899,-6.19911 20.62852,-15.29945c0.89224,-3.10153 1.0098,-6.14677 0.55329,-9.01869zM165.44842,-141.46424" data-paper-data="{&quot;type&quot;:&quot;Shape CompoundPath&quot;,&quot;isSubtraction&quot;:false}" fill="#000000"/><path d="M157.17313,-146.24033c-0.43175,-0.46003 -2.32759,-2.50119 -2.78728,-2.92655c-1.53072,-1.38879 -2.77031,-2.26703 -1.54587,-4.61945l9.01306,-21.95482c0.76862,-1.68406 2.72423,-2.45695 4.43957,-1.76024c3.23775,1.32642 7.52368,3.30379 11.71833,8.0306c3.85522,4.3495 5.00069,7.15773 6.15109,10.05283c0.68139,1.72407 0.23756,3.67276 -1.38279,4.58677c0,0 -21.05398,8.80308 -21.29092,8.95616c-1.22058,0.75035 -2.9259,1.07316 -4.31519,-0.3653z" data-paper-data="{&quot;type&quot;:&quot;Shape CompoundPath&quot;,&quot;isSubtraction&quot;:false}" fill="#000000"/><path d="M161.63423,-146.16987" data-paper-data="{&quot;type&quot;:&quot;Shape CompoundPath&quot;,&quot;isSubtraction&quot;:false}" fill="#000000"/></g></svg>